<svg width="28" height="28" viewBox="0 0 28 28" fill="none" xmlns="http://www.w3.org/2000/svg">
<g clip-path="url(#paint0_angular_1354_1531_clip_path)" data-figma-skip-parse="true"><g transform="matrix(0.014 0 0 -0.014 14 14)"><foreignObject x="-1071.43" y="-1071.43" width="2142.86" height="2142.86"><div xmlns="http://www.w3.org/1999/xhtml" style="background:conic-gradient(from 90deg,rgba(255, 255, 255, 1) 0deg,rgba(255, 255, 255, 0) 360deg);height:100%;width:100%;opacity:1"></div></foreignObject></g></g><path d="M28 14C28 21.732 21.732 28 14 28C6.26801 28 0 21.732 0 14C0 6.26801 6.26801 0 14 0C21.732 0 28 6.26801 28 14ZM2.8 14C2.8 20.1856 7.81441 25.2 14 25.2C20.1856 25.2 25.2 20.1856 25.2 14C25.2 7.81441 20.1856 2.8 14 2.8C7.81441 2.8 2.8 7.81441 2.8 14Z" data-figma-gradient-fill="{&#34;type&#34;:&#34;GRADIENT_ANGULAR&#34;,&#34;stops&#34;:[{&#34;color&#34;:{&#34;r&#34;:1.0,&#34;g&#34;:1.0,&#34;b&#34;:1.0,&#34;a&#34;:1.0},&#34;position&#34;:0.0},{&#34;color&#34;:{&#34;r&#34;:1.0,&#34;g&#34;:1.0,&#34;b&#34;:1.0,&#34;a&#34;:0.0},&#34;position&#34;:1.0}],&#34;stopsVar&#34;:[{&#34;color&#34;:{&#34;r&#34;:1.0,&#34;g&#34;:1.0,&#34;b&#34;:1.0,&#34;a&#34;:1.0},&#34;position&#34;:0.0},{&#34;color&#34;:{&#34;r&#34;:1.0,&#34;g&#34;:1.0,&#34;b&#34;:1.0,&#34;a&#34;:0.0},&#34;position&#34;:1.0}],&#34;transform&#34;:{&#34;m00&#34;:28.0,&#34;m01&#34;:-2.3474876082178915e-14,&#34;m02&#34;:2.8137812785604573e-14,&#34;m10&#34;:4.5027432913420824e-15,&#34;m11&#34;:-28.0,&#34;m12&#34;:28.0},&#34;opacity&#34;:1.0,&#34;blendMode&#34;:&#34;NORMAL&#34;,&#34;visible&#34;:true}"/>
<defs>
<clipPath id="paint0_angular_1354_1531_clip_path"><path d="M28 14C28 21.732 21.732 28 14 28C6.26801 28 0 21.732 0 14C0 6.26801 6.26801 0 14 0C21.732 0 28 6.26801 28 14ZM2.8 14C2.8 20.1856 7.81441 25.2 14 25.2C20.1856 25.2 25.2 20.1856 25.2 14C25.2 7.81441 20.1856 2.8 14 2.8C7.81441 2.8 2.8 7.81441 2.8 14Z"/></clipPath></defs>
</svg>
